<?xml version="1.0" standalone="no"?>
<!DOCTYPE svg PUBLIC "-//W3C//DTD SVG 20010904//EN"
 "http://www.w3.org/TR/2001/REC-SVG-20010904/DTD/svg10.dtd">
<svg version="1.0" xmlns="http://www.w3.org/2000/svg"
 width="816.000000pt" height="820.000000pt" viewBox="0 0 816.000000 820.000000"
 preserveAspectRatio="xMidYMid meet">

<g transform="translate(0.000000,820.000000) scale(0.100000,-0.100000)"
fill="#000000" stroke="none">
<path d="M3930 8169 c-720 -33 -1409 -257 -2020 -658 -761 -498 -1344 -1257
-1624 -2115 -39 -118 -70 -222 -85 -286 -5 -25 -18 -76 -27 -115 -9 -38 -20
-95 -25 -125 -4 -30 -13 -82 -19 -115 -31 -181 -43 -349 -43 -630 0 -363 23
-576 97 -903 203 -901 723 -1713 1466 -2293 386 -301 831 -530 1315 -677 802
-244 1723 -225 2495 52 235 84 256 93 451 188 711 346 1297 885 1709 1573 157
262 332 657 390 880 5 17 16 57 25 90 37 135 68 267 93 405 l27 145 0 540 c0
518 -1 545 -23 665 -29 160 -59 293 -89 400 -14 47 -28 99 -33 115 -92 343
-325 816 -576 1170 -384 540 -900 979 -1499 1275 -428 212 -834 335 -1302 395
-99 13 -513 38 -533 33 -3 0 -79 -4 -170 -9z m-2096 -2965 c29 -10 70 -37 106
-70 32 -30 60 -54 64 -54 3 0 6 24 6 53 0 29 5 58 12 65 17 17 629 17 646 0 7
-7 12 -40 12 -80 0 -85 -7 -90 -136 -87 -74 2 -98 0 -105 -12 -12 -18 -11
-600 1 -619 7 -11 11 -9 18 10 11 27 43 98 139 300 32 69 97 207 143 307 103
221 108 224 163 106 19 -43 60 -130 90 -193 60 -128 161 -343 232 -494 25 -55
44 -107 43 -115 -3 -13 -18 -16 -83 -16 l-80 0 -55 110 -55 110 -148 3 -148 3
-55 -116 -55 -115 -159 0 c-93 0 -161 4 -165 10 -3 5 -6 164 -6 352 1 189 -2
348 -7 354 -4 8 -49 13 -117 15 l-110 4 -59 -47 c-32 -27 -64 -48 -71 -48 -8
0 -35 23 -61 50 -41 43 -53 50 -85 50 -30 0 -42 -6 -55 -24 -14 -23 -14 -28 1
-58 8 -18 46 -55 82 -83 106 -80 187 -159 212 -211 90 -179 -38 -374 -244
-374 -90 0 -155 29 -214 96 -86 97 -90 133 -21 175 64 39 80 37 112 -14 40
-62 61 -79 112 -84 40 -5 48 -2 76 25 17 17 30 41 30 55 0 35 -37 84 -100 135
-193 154 -224 196 -225 307 0 59 4 78 28 117 58 99 176 141 291 102z m-456 -3
c17 -10 18 -137 1 -157 -9 -11 -49 -14 -190 -14 l-180 0 3 -152 3 -153 175 -3
c96 -1 181 -5 188 -7 16 -6 17 -136 0 -153 -8 -8 -65 -12 -190 -12 l-178 0 0
-40 0 -40 188 -2 187 -3 0 -80 0 -80 -275 0 -275 0 -3 439 c-1 316 1 443 9
452 9 11 63 14 268 14 141 0 262 -4 269 -9z m2440 -22 c31 -12 63 -28 70 -37
7 -10 12 -47 12 -94 0 -95 -10 -103 -77 -60 -187 118 -423 22 -461 -188 -34
-183 94 -332 288 -334 79 -1 118 10 182 52 57 37 68 27 68 -67 0 -95 -5 -103
-97 -131 -78 -24 -224 -27 -294 -6 -105 32 -193 97 -257 191 -39 59 -65 154
-65 245 0 138 40 236 132 325 71 69 161 114 256 129 58 9 186 -5 243 -25z
m290 19 c9 -9 12 -120 12 -439 0 -235 -3 -434 -6 -443 -9 -23 -159 -23 -168 0
-10 27 -7 841 4 868 9 24 14 26 78 26 40 0 73 -5 80 -12z m672 -17 c258 -98
374 -397 250 -642 -27 -51 -115 -145 -165 -174 -149 -88 -330 -87 -477 1 -101
61 -170 158 -204 287 -45 168 36 371 191 477 39 26 134 65 185 74 46 8 172 -5
220 -23z m680 -230 c124 -143 230 -259 235 -257 6 2 12 100 15 257 l5 254 80
0 80 0 0 -470 c0 -462 0 -470 -20 -473 -15 -2 -81 67 -270 284 l-250 287 -5
-256 c-3 -140 -8 -258 -12 -262 -9 -9 -143 -9 -157 -1 -12 8 -16 877 -4 889 3
4 23 7 42 7 35 0 45 -10 261 -259z m954 171 c3 -5 6 -147 7 -317 0 -170 3
-314 6 -322 4 -9 28 -13 89 -13 81 0 85 -1 94 -26 14 -37 12 -100 -4 -113 -9
-8 -64 -11 -172 -9 l-159 3 -3 390 c-1 214 0 396 3 402 5 15 130 18 139 5z
m742 -6 c97 -26 244 -122 244 -160 0 -6 -20 -32 -45 -56 -50 -49 -54 -49 -133
15 -79 64 -189 81 -284 45 -157 -60 -216 -224 -132 -367 47 -82 128 -123 239
-123 78 0 129 16 159 49 18 20 18 20 -60 23 l-78 3 -7 35 c-4 19 -4 51 0 70
l7 35 182 3 182 2 0 -44 c0 -109 -86 -237 -197 -292 -55 -28 -65 -29 -189 -29
l-130 0 -76 38 c-89 44 -151 109 -195 203 -24 52 -27 71 -27 154 0 72 6 108
21 148 44 110 142 204 255 243 64 22 191 25 264 5z m-3511 -1375 c226 -151
417 -275 425 -275 8 0 199 123 424 273 225 151 418 276 428 279 17 4 19 0 16
-44 l-3 -49 -385 -257 c-212 -142 -386 -261 -387 -265 -2 -5 149 -109 335
-232 463 -308 442 -291 442 -346 0 -25 -5 -45 -10 -45 -6 0 -199 126 -430 280
-230 154 -424 280 -430 280 -5 0 -196 -124 -423 -276 -226 -152 -420 -279
-429 -282 -15 -4 -18 2 -18 36 0 24 7 48 18 60 9 11 180 129 379 261 198 133
366 248 372 255 8 10 -71 68 -361 262 -205 137 -380 257 -390 267 -25 24 -25
100 0 95 9 -2 202 -127 427 -277z m-1006 -202 c54 -19 68 -73 29 -109 l-23
-21 28 -21 c39 -28 38 -77 -4 -112 -27 -23 -39 -26 -110 -26 l-79 0 0 143 c0
79 3 147 7 150 10 11 117 8 152 -4z m377 3 c12 -8 104 -253 104 -278 0 -11 -9
-14 -32 -12 -24 2 -36 10 -46 31 -13 26 -17 28 -65 25 -45 -3 -52 -6 -57 -28
-5 -20 -13 -26 -43 -28 -20 -2 -37 0 -37 4 0 11 82 237 97 267 14 27 53 37 79
19z m406 -2 c68 -19 89 -82 42 -131 l-26 -27 41 -60 c22 -33 37 -62 34 -66 -4
-3 -21 -6 -39 -6 -28 0 -36 6 -49 34 -18 38 -51 76 -65 76 -6 0 -10 -12 -11
-27 -3 -80 -2 -78 -39 -78 l-35 0 -3 128 c-3 155 1 167 66 167 26 0 64 -5 84
-10z m1451 -6 c18 -9 35 -22 39 -28 14 -21 8 -55 -14 -76 l-23 -21 28 -21 c39
-28 38 -77 -4 -112 -27 -23 -39 -26 -110 -26 l-79 0 0 143 c0 79 3 147 7 150
13 14 124 7 156 -9z m392 -4 c10 -31 -2 -40 -51 -40 -42 0 -44 -1 -44 -29 0
-28 3 -30 43 -33 38 -3 42 -6 45 -30 3 -27 1 -28 -41 -28 -34 0 -46 -4 -49
-17 -9 -33 3 -43 47 -43 45 0 71 -19 61 -45 -4 -12 -24 -15 -91 -15 l-85 0 0
143 c0 79 3 147 7 150 3 4 39 7 79 7 64 0 73 -2 79 -20z m330 6 c59 -25 72
-82 29 -127 l-26 -27 41 -60 c22 -33 37 -62 34 -66 -4 -3 -19 -6 -34 -6 -23 0
-37 11 -69 55 -22 30 -45 55 -50 55 -12 0 -24 -46 -16 -65 10 -26 -5 -45 -35
-45 l-29 0 0 143 c0 79 3 147 7 150 12 12 113 7 148 -7z"/>
<path d="M2810 4770 c-17 -34 -28 -65 -25 -70 8 -13 112 -13 119 -1 7 11 -43
131 -55 131 -5 0 -22 -27 -39 -60z"/>
<path d="M4537 5026 c-92 -33 -164 -109 -188 -201 -15 -55 -6 -152 19 -200 50
-99 142 -155 256 -157 61 -1 82 3 129 26 104 51 161 143 160 261 0 87 -31 154
-98 213 -76 67 -187 90 -278 58z"/>
<path d="M2554 3476 c-10 -26 4 -48 28 -44 17 2 23 10 23 28 0 18 -6 26 -23
28 -13 2 -25 -3 -28 -12z"/>
<path d="M2550 3340 c0 -38 22 -48 55 -26 21 14 24 20 15 36 -7 13 -21 20 -40
20 -27 0 -30 -3 -30 -30z"/>
<path d="M2966 3427 c-19 -44 -15 -57 20 -57 28 0 31 18 10 65 l-14 30 -16
-38z"/>
<path d="M3350 3457 c0 -43 6 -48 36 -35 36 17 30 62 -8 66 -26 3 -28 1 -28
-31z"/>
<path d="M4784 3476 c-10 -26 4 -48 28 -44 17 2 23 10 23 28 0 18 -6 26 -23
28 -13 2 -25 -3 -28 -12z"/>
<path d="M4780 3340 c0 -38 22 -48 55 -26 21 14 24 20 15 36 -7 13 -21 20 -40
20 -27 0 -30 -3 -30 -30z"/>
<path d="M5506 3466 c-6 -25 1 -56 13 -56 4 0 17 7 29 16 32 22 26 58 -9 62
-21 2 -28 -2 -33 -22z"/>
</g>
</svg>
